<?xml version="1.0" encoding="UTF-8"?>
<svg width="700pt" height="700pt" version="1.1" viewBox="0 0 700 700" xmlns="http://www.w3.org/2000/svg">
 <g fill-rule="evenodd">
  <path d="m150.29 253.76c67.586 86.176 101.03 58.918 145.65 48.211 38.441 33.891 45.406 35.352 46.676 62.609h-98.434l4.8203 58.961h192.71l4.8281-58.961h-89.098l-0.31641-13.836 46.949-36.734c80.105 4.0859 82.723 0.4375 124.13-85.105-131.3 26.125-140.43 45.855-127.27 83.676l-42.332 32.879c19.223-54.824 34.316-80.508 78.703-126.57 64.289 11.402 68.23 9.1523 119.07-63.727-114.83 10.742-125.21 34.617-120.86 61.203-2.8984 2.3867-57.754 57.141-77.492 110.25l7.9883-103.15 25.789-42.336c41.293 2.8516 78.055-5.9336 80.328-58.66-115.57 36.809-82.59 57.484-82.598 57.496l-22.918 35.652 1.375-17.746 31.059-66.797c51.816-3.625 54.613-46.227 47.41-76.148-76.547 21.906-64.707 53.422-54.031 75.047l-29.578 67.348c-2.8828 11.156 1.6289 21.621-5.6094 32.879l-26.105-77.395c0-0.019531 86.211-27.953-29.359-69.418-8.7773 35.359-26.41 56.004 26.516 69.906l26.555 80.629-14.293 22.23-3.3789-35.035-53.43-63.035c5.4375-33.66 4.4727-41.391-90.105-60.109 27.707 56.934 29.93 61.129 86.984 61.453l51.414 62.188 9.9688 114.29c-19.738-47.152-74.594-95.754-77.492-97.871 4.3516-23.598-6.0312-44.797-120.86-54.328 50.836 64.695 54.777 66.691 119.07 56.57 36.34 33.473 53.039 54.82 68.449 88.16l-32.078-28.07c5.6016-40.977-17.488-17.172-148.79-46.598zm209.43-19.98m-3.1875 5.2461c5.0781 15.426-4.9805 79.793-6.957 100.01l-8.2617-75.039 15.219-24.977zm117.41 18.871c-28.004 15.258-45.215 33.824-68.352 52.617 0.085938 0.039063 61.891-48.277 68.352-52.617zm-215.97-21.965c0.94531 0.85938-42.141-23.539-63.746-33.711 8.6914 3.2461 56.09 26.57 63.746 33.711zm137.98-61.613c-3.7969-0.88672 52.168-35.398 57.324-39.23-4.75 4.4766-57.664 39.785-57.324 39.23zm-116.87-18.578c-1.6328 0.61328-48.781-30.523-53.609-34.059 19.273 11.418 35.512 20.152 53.609 34.059zm-99.543 112.35c28.031 9.7578 67.902 12.031 114.89 29.938-0.085937 0.046875-108.43-25.047-114.89-29.938zm262.5-54.078c-0.94531 0.96484 42.141-26.523 63.746-37.984-8.6914 3.6641-56.09 29.938-63.746 37.984zm-112.67-65.547c2.3477-4.8633-8.8281-42.121-13.988-46.434 2.1289 8.3086 13.988 46.434 13.988 46.434zm70.621-23.574c1.6328 0.69531 17.68-33.203 29.176-53.027-8.2148 22.633-12.574 32.504-29.176 53.027z"/>
  <path d="m260.1 428.44 12.113 76.633h146.27l12.125-76.633z"/>
 </g>
</svg>
